# xmcd
#
# Track frame offsets:
#	150
#	15768
#	31645
#	49861
#	70552
#	90410
#	109661
#	126363
#	147371
#	164282
#	182089
#	195695
#	215000
#	230804
#	249337
#	267976
#
# Disc length: 3864 seconds
#
# Revision: 1
# Processed by: cddbd v1.4PL0 Copyright (c) Steve Scherf et al.
# Submitted via: audiograbber 1.81.02
#
DISCID=d60f1610
DTITLE=The Corrs - In Blue
DYEAR=1900
DGENRE=
TTITLE0=Breathless
TTITLE1=Give Me A Reason
TTITLE2=Somebody For Someone
TTITLE3=Say
TTITLE4=All The Love in The World
TTITLE5=Radio
TTITLE6=Irresistible
TTITLE7=One Night
TTITLE8=All In A Day
TTITLE9=At Your Side
TTITLE10=No More Cry
TTITLE11=Rain
TTITLE12=Give It All Up
TTITLE13=Hurt Before
TTITLE14=Rebel Heart
TTITLE15=Bonus
EXTD=
EXTT0=
EXTT1=
EXTT2=
EXTT3=
EXTT4=
EXTT5=
EXTT6=
EXTT7=
EXTT8=
EXTT9=
EXTT10=
EXTT11=
EXTT12=
EXTT13=
EXTT14=
EXTT15=
PLAYORDER=
